<svg fill="#000000" height="64px" width="64px" version="1.1" id="Layer_1" xmlns="http://www.w3.org/2000/svg" xmlns:xlink="http://www.w3.org/1999/xlink" 
	 viewBox="34 200 310 100" xml:space="preserve">
<g>
	<g>
		<path d="M229.261,358.018c0-1.371,0-3.393,0-5.973c13.803-0.115,29.255-18.822,38.445-35.285
			c27.014-3.707,66.541-36.238,66.843-73.023c0.128-13.896-5.67-21.076-10.526-24.666c-9.655-7.146-22.796-5.705-32.556-3.381
			c0.278-7.611,0.255-14.396-0.047-19.66c-6.82,0-14.965,0-23.679,0c3.113-6.146,7.181-12.025,11.084-16.033
			c2.23-5.019,25.735-58.128,25.735-58.128h-0.022c0.034-0.046,0.058-0.11,0.104-0.168c2.068-4.711,2.115-9.254-2.613-11.328
			c-0.221-0.116-1.139-0.511-1.359-0.616c-4.718-2.097-9.121,0.535-11.189,5.223c-0.035,0.07-0.035,0.128-0.058,0.192h-0.023
			c0,0-23.54,53.085-25.747,58.116c-0.406,6.64-2.277,15.313-5.298,22.743c-33.822,0-72.623,0-80.89,0c0,0-0.726,0-1.76,0
			c-9.818,0-61.725,0-96.017,0c-1.929,35.81,11.828,151.543,64.153,156.016c0,2.58,0,4.602,0,5.973H42.711v19.264h291.86v-19.264
			H229.261z M118.081,305.734c-11.398-26.27-19.606-97.55-19.606-97.55s23.104,64.053,28.361,81.783
			c5.251,17.742,28.285,42.908,28.285,42.908S129.456,332.004,118.081,305.734z M289.991,236.824
			c11.409-3.45,18.973-4.102,22.203-1.731c2.057,1.511,2.463,5.449,2.416,8.459c-0.162,20.426-19.519,39.828-36.087,48.658
			C284.692,274.003,288.167,254.379,289.991,236.824z"/>
		<polygon points="186.562,39.294 186.562,39.335 186.626,39.405 		"/>
		
	</g>
</g>
</svg>